<?xml version="1.0" standalone="no"?>
<!DOCTYPE svg PUBLIC "-//W3C//DTD SVG 20010904//EN"
 "http://www.w3.org/TR/2001/REC-SVG-20010904/DTD/svg10.dtd">
<svg version="1.0" xmlns="http://www.w3.org/2000/svg"
 width="800.000000pt" height="350.000000pt" viewBox="0 0 800.000000 350.000000"
 preserveAspectRatio="xMidYMid meet">

<g transform="translate(0.000000,350.000000) scale(0.100000,-0.100000)"
fill="#000000" stroke="none">
<path d="M3505 3380 c-10 -11 -15 -28 -12 -40 3 -14 0 -23 -10 -27 -25 -10
-33 -46 -14 -67 9 -10 17 -28 18 -40 1 -11 4 -48 7 -80 3 -40 10 -62 20 -68 9
-5 16 -17 16 -27 0 -11 11 -60 24 -110 21 -82 22 -96 10 -129 -19 -53 -17 -68
11 -98 14 -15 25 -37 25 -49 0 -12 5 -36 10 -52 9 -25 7 -36 -9 -65 -23 -39
-37 -117 -26 -145 4 -10 8 -56 10 -103 5 -141 22 -302 39 -355 12 -39 13 -63
6 -120 -6 -38 -15 -81 -20 -95 -14 -35 -68 -69 -112 -72 -32 -2 -38 -6 -38
-24 0 -12 -6 -26 -13 -32 -8 -7 -11 -26 -9 -50 4 -39 5 -40 45 -45 23 -2 103
-5 177 -6 74 0 198 -4 275 -7 l140 -6 11 35 c8 29 8 37 -3 41 -7 3 -13 17 -13
30 0 20 -7 27 -32 34 -24 6 -38 18 -51 44 -19 38 -19 52 -17 353 1 72 -2 159
-5 194 l-6 63 25 -6 c35 -9 60 19 80 87 19 66 19 80 2 130 -11 29 -11 45 -3
68 8 21 8 34 1 46 -16 25 -32 27 -39 4 -10 -33 -23 -25 -51 32 -15 28 -44 68
-65 88 -37 34 -38 38 -42 112 -3 72 -2 77 17 78 20 1 20 1 1 6 -47 10 -49 12
-29 35 19 21 19 21 -1 11 -27 -14 -45 -6 -45 20 -1 20 -2 21 -14 5 -18 -25
-28 -23 -49 10 l-17 27 6 -29 c6 -27 5 -29 -20 -24 -21 4 -24 3 -15 -8 9 -11
8 -18 0 -28 -9 -11 -9 -16 0 -21 8 -6 7 -10 -2 -16 -10 -6 -11 -9 -1 -9 6 0
12 -9 12 -19 0 -11 5 -23 10 -26 7 -4 6 -13 -1 -26 -10 -19 -12 -20 -29 -4
-10 9 -21 29 -25 43 -4 15 -12 34 -19 42 -14 16 -76 205 -76 230 0 8 -9 34
-20 58 l-19 42 21 20 c28 26 31 61 6 68 -24 6 -23 24 2 47 11 10 20 21 20 26
0 4 -9 5 -20 2 -11 -3 -20 0 -20 6 0 17 -15 13 -35 -9z"/>
<path d="M2738 2845 c-4 -51 -24 -55 -67 -13 l-34 33 17 -32 c35 -68 11 -91
-57 -57 l-32 16 34 -36 c39 -40 35 -55 -17 -59 -34 -2 -45 -17 -13 -17 23 0
48 -27 35 -40 -5 -5 -22 -16 -39 -24 l-30 -16 38 0 c53 0 60 -24 19 -62 -37
-32 -37 -33 11 -13 28 12 38 12 44 2 10 -16 5 -45 -15 -76 -15 -24 -13 -23 21
7 55 47 67 41 61 -33 l-3 -40 21 43 c26 53 48 52 64 -3 l11 -40 7 48 c9 56 25
60 56 16 28 -38 33 -34 18 14 -16 54 -1 66 47 38 l37 -21 -22 35 c-30 48 -21
66 27 60 l38 -5 -33 20 c-46 28 -42 55 11 67 39 10 40 11 10 12 -69 2 -82 29
-35 69 15 13 21 20 14 17 -7 -4 -26 -9 -43 -12 -37 -5 -46 15 -26 56 l15 30
-28 -21 c-40 -29 -60 -18 -60 34 l0 43 -18 -35 c-24 -49 -46 -50 -65 -3 l-15
38 -4 -40z m114 -82 c37 -21 78 -92 78 -136 0 -43 -37 -102 -80 -126 -78 -44
-165 -16 -207 67 -68 135 78 271 209 195z"/>
<path d="M2727 2711 c-27 -18 -36 -30 -43 -59 -14 -53 39 -112 101 -112 33 0
85 52 85 85 0 81 -80 129 -143 86z"/>
<path d="M4638 2197 c-15 -10 -15 -12 4 -29 27 -23 38 -23 38 1 0 27 -21 41
-42 28z"/>
<path d="M4584 2131 c8 -12 -32 -87 -65 -122 -15 -16 -24 -30 -22 -33 3 -3 -3
-17 -14 -33 -10 -15 -25 -40 -33 -55 -7 -16 -20 -28 -27 -28 -8 0 -13 -6 -11
-12 3 -15 -60 -128 -72 -128 -4 0 -52 -79 -106 -175 l-99 -176 -50 5 c-27 3
-86 10 -130 15 -157 21 -504 16 -620 -9 -22 -4 -76 -16 -120 -25 -91 -19 -280
-75 -373 -111 -90 -35 -293 -141 -395 -208 -257 -167 -495 -408 -673 -682 -55
-85 -184 -326 -184 -345 0 -5 11 -9 25 -9 20 0 30 12 64 84 218 466 630 868
1106 1079 677 301 1460 248 2088 -140 137 -85 241 -167 371 -293 195 -189 329
-370 447 -602 54 -108 68 -128 87 -128 29 0 26 11 -35 135 -66 131 -135 243
-222 358 -42 55 -82 108 -89 118 -14 18 -15 16 57 141 46 81 60 105 95 166 20
34 34 67 31 72 -7 12 53 130 66 130 5 0 9 8 9 18 1 9 14 40 30 67 16 28 45 83
65 123 20 40 43 76 51 79 22 8 17 21 -16 38 -37 19 -40 19 -40 -5 0 -20 -66
-132 -82 -138 -4 -2 -8 -10 -8 -19 0 -15 -58 -106 -72 -111 -4 -2 -8 -10 -8
-18 0 -7 -16 -39 -36 -69 l-35 -56 -57 32 c-133 74 -134 75 -94 122 8 9 12 17
9 17 -4 0 7 21 23 47 17 26 30 51 30 56 0 5 10 22 21 39 16 22 18 33 10 41
-12 12 -9 16 -47 -47 -30 -51 -43 -73 -83 -138 -23 -38 -44 -48 -56 -28 -4 6
22 60 56 121 68 121 82 174 45 165 -18 -4 -59 15 -134 62 -7 5 -10 15 -7 23 6
16 45 23 45 8 0 -5 7 -9 15 -9 9 0 18 -7 21 -15 12 -31 34 -16 34 24 0 43 -19
66 -50 58 -27 -7 -25 7 5 47 27 36 33 93 14 143 -6 15 -9 28 -7 28 1 0 -5 11
-15 25 -9 13 -17 33 -17 43 0 10 -4 16 -8 13 -5 -3 -30 -7 -58 -11 -108 -13
-159 -43 -185 -112 -11 -30 -25 -29 -33 2 -8 30 -28 31 -75 6 l-35 -19 40 -20
c54 -28 69 -46 50 -62 -12 -9 -27 -6 -76 21 -33 19 -60 39 -60 45 0 6 -6 17
-14 23 -10 9 -15 8 -20 -4 -3 -8 -11 -15 -19 -15 -7 0 -23 -17 -34 -37 -33
-61 -105 -188 -110 -192 -2 -3 -11 3 -21 12 -13 14 -14 21 -5 35 7 9 22 38 34
65 12 26 25 47 28 47 4 0 13 16 20 35 7 19 19 42 28 51 14 13 14 17 2 25 -20
12 -29 11 -29 -4 0 -7 -22 -48 -50 -90 -27 -42 -50 -79 -50 -82 0 -3 -7 -17
-16 -31 -11 -16 -20 -21 -28 -15 -6 5 -28 18 -48 30 -21 12 -55 30 -75 42 -21
12 -39 22 -41 24 -9 8 62 125 75 125 10 0 13 6 9 16 -6 16 36 102 60 120 8 7
14 16 12 20 -4 14 54 125 69 131 21 8 15 29 -12 41 -31 14 -48 15 -41 3z"/>
<path d="M4746 1841 c-3 -5 1 -12 10 -15 20 -8 29 -1 19 13 -8 13 -22 14 -29
2z"/>
<path d="M5826 1507 c-16 -12 -14 -14 16 -29 l34 -16 -4 29 c-5 31 -18 36 -46
16z"/>
<path d="M5492 1421 c-11 -7 -11 -9 2 -14 10 -4 16 -1 16 8 0 17 -1 17 -18 6z"/>
<path d="M3505 1293 c-246 -30 -406 -68 -585 -136 -295 -113 -535 -270 -766
-501 -181 -182 -296 -340 -408 -564 -45 -89 -46 -92 -23 -92 18 0 29 13 56 68
160 327 439 641 749 843 267 174 584 290 907 333 140 18 432 14 575 -8 375
-59 734 -215 1020 -445 225 -180 436 -439 562 -687 44 -86 57 -104 76 -104 22
0 22 1 7 37 -9 21 -34 72 -57 113 -234 429 -593 763 -1033 962 -191 86 -459
157 -671 178 -95 9 -346 11 -409 3z"/>
<path d="M1283 808 c-37 -41 -376 -719 -375 -751 1 -48 17 -57 96 -57 l71 1
30 62 c63 129 327 642 335 651 5 4 13 5 19 2 6 -4 -21 -67 -68 -159 -164 -319
-281 -549 -281 -553 0 -2 6 -4 13 -4 6 0 18 13 25 29 19 44 38 45 113 6 50
-26 81 -35 115 -35 37 0 45 3 36 12 -7 7 -12 26 -12 43 0 40 31 70 72 70 29 0
33 7 110 159 80 157 80 159 64 186 -9 16 -16 37 -16 47 0 32 37 63 74 63 29 0
35 5 51 40 10 22 16 42 14 44 -2 2 -47 25 -99 50 -82 40 -96 44 -109 32 -12
-13 -27 -8 -112 35 -110 55 -136 59 -166 27z m84 -43 c41 -20 46 -38 25 -86
-20 -47 -47 -57 -91 -35 -35 19 -39 41 -15 89 26 50 36 54 81 32z m182 -96
c29 -17 32 -24 27 -50 -8 -40 -35 -79 -55 -79 -21 0 -81 37 -81 50 0 12 27 69
42 88 14 17 28 15 67 -9z m-234 -79 c19 -20 19 -20 -3 -65 -12 -25 -29 -48
-37 -51 -20 -8 -79 28 -83 50 -4 18 11 56 32 84 13 18 65 8 91 -18z m155 -75
c38 -20 41 -32 17 -82 -24 -49 -39 -55 -84 -34 -43 20 -48 38 -22 88 24 47 42
53 89 28z m-252 -65 c37 -23 39 -37 12 -90 -23 -45 -44 -50 -91 -23 -40 24
-37 64 9 116 19 22 30 21 70 -3z m166 -87 c45 -21 48 -31 26 -82 -23 -51 -42
-59 -86 -37 -44 20 -50 36 -28 78 33 65 36 66 88 41z m-239 -76 c31 -26 28
-55 -10 -102 l-23 -30 -36 18 c-48 22 -53 40 -28 93 25 51 55 58 97 21z m164
-82 c40 -20 44 -38 19 -84 -26 -48 -41 -55 -77 -37 -48 25 -55 40 -35 78 32
64 44 69 93 43z m-251 -65 c37 -23 39 -37 12 -90 -24 -46 -52 -52 -94 -19 -35
28 -32 55 13 112 18 22 29 21 69 -3z"/>
<path d="M1676 544 c-31 -31 -13 -74 31 -74 43 0 52 59 12 80 -23 13 -25 13
-43 -6z"/>
<path d="M7242 525 c-96 -27 -173 -94 -258 -226 -25 -38 -54 -77 -64 -87 -18
-16 -18 -19 -2 -52 9 -19 24 -36 32 -37 8 -1 67 -20 130 -43 107 -38 121 -41
205 -38 130 4 194 40 235 131 26 57 25 83 -1 30 -43 -88 -140 -133 -282 -132
-100 0 -160 15 -165 40 -2 13 9 15 75 13 123 -5 264 35 329 93 25 21 54 75 54
99 0 16 -3 15 -22 -3 -51 -47 -193 -101 -333 -128 -114 -21 -121 -20 -134 16
-6 18 -11 34 -11 36 0 2 42 24 93 48 133 63 245 97 322 98 l66 2 -30 27 c-42
38 -99 43 -191 19 -80 -20 -157 -60 -227 -117 -48 -40 -53 -41 -53 -14 0 28
61 92 132 140 116 77 233 86 318 23 l35 -26 -25 27 c-56 62 -142 85 -228 61z"/>
<path d="M6804 156 c-10 -26 1 -51 24 -54 23 -4 26 6 16 46 -7 25 -32 30 -40
8z"/>
<path d="M1435 76 c-19 -29 -10 -54 21 -62 30 -8 54 11 54 40 0 47 -49 62 -75
22z"/>
</g>
</svg>
